<?xml version="1.0" standalone="no"?>
<!DOCTYPE svg PUBLIC "-//W3C//DTD SVG 20010904//EN"
 "http://www.w3.org/TR/2001/REC-SVG-20010904/DTD/svg10.dtd">
<svg version="1.0" xmlns="http://www.w3.org/2000/svg"
 width="400.000000pt" height="400.000000pt" viewBox="0 0 400.000000 400.000000"
 preserveAspectRatio="xMidYMid meet">
<metadata>
Created by potrace 1.11, written by Peter Selinger 2001-2013
</metadata>
<g transform="translate(0.000000,400.000000) scale(0.100000,-0.100000)"
fill="#000000" stroke="none">
<path d="M1878 3620 c-79 -25 -130 -54 -180 -103 -138 -134 -176 -343 -92
-509 l24 -48 -307 0 c-190 0 -323 -4 -347 -11 -58 -16 -101 -48 -138 -104
l-33 -50 -3 -381 c-3 -340 -1 -383 13 -398 18 -18 41 -10 80 25 11 10 47 30
80 46 51 24 73 28 145 28 75 0 93 -4 150 -31 139 -67 212 -187 207 -341 -5
-132 -83 -247 -207 -307 -57 -27 -75 -31 -150 -31 -72 0 -94 4 -143 27 -32 15
-74 40 -93 57 -40 32 -71 31 -80 -3 -3 -11 -4 -188 -2 -391 3 -412 1 -397 75
-465 76 -70 -17 -65 1104 -68 893 -2 1021 0 1060 13 53 19 88 48 126 106 l28
44 3 1000 c2 729 0 1015 -8 1054 -13 59 -56 114 -118 153 -36 23 -44 23 -369
26 l-333 3 25 49 c14 27 30 81 37 120 54 313 -252 584 -554 490z"/>
</g>
</svg>
